<svg width="58" height="55" viewBox="0 0 100 100" fill="none" xmlns="http://www.w3.org/2000/svg">
<path d="M83.7602 86.6944L73.0337 94.2255C71.2179 95.5003 68.715 95.0663 67.4556 93.2398C62.3429 85.8255 56.3856 76.4177 49.5958 64.7756C43.4666 76.7147 37.8888 86.1448 32.8744 93.3041C31.6096 95.1099 29.1191 95.526 27.3147 94.2591L16.46 86.6381C14.5696 85.3109 14.2046 82.6513 15.6504 80.8499C25.4961 68.5818 32.8027 60.6785 37.2691 56.5516C26.1026 54.2598 15.5079 51.9537 5.48496 49.3944C3.25865 48.826 1.99107 46.4845 2.69445 44.2971L6.85801 31.349C7.55233 29.1897 9.91208 28.0462 12.0437 28.8213C25.6994 33.7864 35.6385 37.8498 42.1296 41.6194C40.5996 26.9112 39.5664 16.2379 39.2434 9.16219C39.1399 6.89353 40.9663 5.00916 43.2374 5.00916H56.2336C58.5252 5.00916 60.3546 6.92062 60.2273 9.20864C59.7279 18.1839 58.6689 29.0661 57.0619 41.6194C66.146 36.9109 76.4282 32.8017 87.9357 28.7523C90.0525 28.0074 92.3711 29.167 93.0581 31.3033L97.3066 44.5155C97.9832 46.6197 96.8288 48.9022 94.7173 49.5556C83.6661 52.9749 72.6455 55.2093 61.9223 56.5516C67.3673 61.3223 74.9959 69.5068 84.5135 80.8386C86.0222 82.6349 85.68 85.3465 83.7602 86.6944Z" fill="#8648DB"/>
</svg>
