<svg width="118" height="26" viewBox="0 0 118 26" fill="none" xmlns="http://www.w3.org/2000/svg">
<g id="Group 2">
<path id="Vector" d="M46.7883 6.55539H50.8756V8.03416C51.9285 6.443 53.4605 6.2478 54.4246 6.2478C54.9629 6.2478 55.9566 6.30695 56.8084 6.81565C57.4591 7.18239 58.0033 7.80939 58.3404 8.57835C58.6539 8.06965 59.133 7.47222 59.9612 6.95761C60.8425 6.41934 61.6647 6.2478 62.6584 6.2478C64.1904 6.2478 65.4385 6.70326 66.2075 7.44265C67.426 8.60792 67.5147 10.3115 67.5147 11.2165V19.2255H63.4274V12.8076C63.4274 12.157 63.4274 11.0213 62.8891 10.3351C62.5461 9.90924 62.0078 9.65489 61.4104 9.65489C60.7301 9.65489 60.1623 9.96839 59.8192 10.4238C59.2809 11.1041 59.1922 12.0978 59.1922 12.92V19.2255H55.1049V12.6361C55.1049 11.7843 55.0753 10.7906 54.4542 10.1636C54.0283 9.7377 53.5196 9.65489 53.0937 9.65489C52.5555 9.65489 52.0704 9.79685 51.6741 10.1636C50.9052 10.903 50.8815 12.3226 50.8815 12.7485V19.2255H46.7942V6.5613L46.7883 6.55539Z" fill="white"/>
<path id="Vector_2" d="M80.4333 6.55553H84.5206V19.2197H80.4333V17.6877C79.3272 19.3913 77.736 19.6456 76.6832 19.6456C74.8672 19.6456 73.3352 19.1901 71.9393 17.7173C70.6024 16.2977 70.0938 14.6533 70.0938 12.9734C70.0938 10.844 70.8864 9.02803 72.0516 7.86276C73.1578 6.75664 74.6898 6.12964 76.4525 6.12964C77.529 6.12964 79.2621 6.38399 80.4274 7.97515V6.55553H80.4333ZM75.2399 10.56C74.814 10.9859 74.3053 11.7253 74.3053 12.861C74.3053 13.9967 74.7903 14.7361 75.1571 15.1324C75.7249 15.7298 76.6063 16.1261 77.5704 16.1261C78.3926 16.1261 79.1616 15.7831 79.6998 15.2448C80.2381 14.7361 80.6936 13.9376 80.6936 12.861C80.6936 11.9501 80.3505 11.0983 79.759 10.5305C79.132 9.93304 78.227 9.64912 77.4876 9.64912C76.6063 9.64912 75.7841 10.0159 75.2458 10.56H75.2399Z" fill="white"/>
<path id="Vector_3" d="M92.2161 17.5989L86.1709 6.55542H90.8852L94.4638 13.4287L97.9538 6.55542H102.556L92.364 25.7203H87.7621L92.222 17.5989H92.2161Z" fill="white"/>
<path id="Vector_4" d="M116.095 17.599C114.96 18.7347 113.031 19.6457 110.559 19.6457C108.086 19.6457 106.158 18.7347 105.022 17.599C103.745 16.3214 103.118 14.5054 103.118 12.8847C103.118 11.264 103.745 9.44806 105.022 8.1704C106.158 7.0347 108.086 6.12378 110.559 6.12378C113.031 6.12378 114.96 7.0347 116.095 8.1704C117.373 9.44806 118 11.264 118 12.8847C118 14.5054 117.373 16.3214 116.095 17.599ZM108.258 10.5009C107.66 11.0984 107.323 11.8614 107.323 12.8847C107.323 14.05 107.779 14.7894 108.258 15.2685C108.767 15.7772 109.506 16.1794 110.588 16.1794C111.499 16.1794 112.262 15.8659 112.86 15.2685C113.457 14.6711 113.794 13.908 113.794 12.8847C113.794 11.8614 113.451 11.0984 112.86 10.5009C112.262 9.90352 111.499 9.59002 110.559 9.59002C109.618 9.59002 108.855 9.90352 108.258 10.5009Z" fill="white"/>
<path id="Vector_5" d="M35.106 6.18277C35.106 6.18277 35.0883 6.18277 35.0824 6.18277C31.7758 6.18277 28.2445 9.1758 26.5292 10.8439L26.7421 9.87378C26.9491 8.86822 27.0556 8.18798 27.0556 7.82716C27.0556 7.22383 26.9077 6.76245 26.6179 6.44895C26.3221 6.13545 25.9022 5.98166 25.3521 5.98166C24.7487 5.98166 24.0744 6.20052 23.335 6.63232C22.5956 7.06412 21.8385 7.79759 21.0636 8.8209C20.2887 9.84421 19.5849 11.1692 18.9638 12.7958C19.0407 11.9618 19.1353 11.2638 19.2477 10.696C19.3601 10.1281 19.5139 9.46564 19.7032 8.70851C19.9871 7.64971 20.129 6.96948 20.129 6.66189C20.129 6.65598 20.129 6.65006 20.129 6.64415C20.2 5.65041 19.8155 4.79864 19.1116 4.57978C18.7508 4.4674 18.3604 4.55613 18.0055 4.77498C18.0055 4.77498 18.0055 4.77498 17.9996 4.78681C17.6447 5.00567 17.3194 5.36649 17.0769 5.82195C16.6865 6.55542 16.1245 7.19425 15.4798 7.71478C11.4812 10.9208 6.37647 10.1045 6.11029 10.0572L5.90918 11.2224L5.70215 12.3877C5.81454 12.4054 6.64856 12.5474 7.89073 12.5474C9.94326 12.5474 13.1078 12.1629 16.0003 10.2583C15.746 11.6601 15.5981 13.0975 15.5981 14.5822C15.5981 16.2502 15.746 17.4569 16.0358 18.2141C16.3316 18.9712 16.8343 19.3497 17.556 19.3497C18.1593 19.3497 18.597 19.196 18.8632 18.8943C19.1294 18.5926 19.366 17.9834 19.573 17.0784C19.8569 15.9249 20.2237 14.8247 20.6791 13.7837C21.1346 12.7426 21.5901 11.9027 22.0396 11.2697C22.4951 10.6368 22.8559 10.3174 23.1162 10.3174C23.2108 10.3174 23.2936 10.3529 23.3587 10.4298C23.4237 10.5067 23.4592 10.6191 23.4592 10.7729C23.4592 10.8853 23.4415 11.0923 23.4001 11.3999C23.3646 11.8139 23.3409 12.2043 23.3409 12.5651C23.3409 13.3341 23.6012 13.9079 24.1217 14.2983C24.4648 14.5526 24.8848 14.6709 25.3106 14.665C25.9258 14.6532 26.2393 14.4875 26.7658 14.0321C27.2922 13.5766 27.7891 13.062 28.3983 12.3285C30.1019 10.7256 32.8997 8.54289 35.0765 8.54289C35.0765 8.54289 35.0883 8.54289 35.0942 8.54289C35.8632 8.54289 36.4665 8.82682 36.9929 9.42424L38.7675 7.86265C37.8033 6.76836 36.5375 6.18869 35.1001 6.18277H35.106Z" fill="white"/>
<path id="Vector_6" d="M6.67221 0.279541C8.31661 0.279541 10.1385 0.504314 11.6409 1.84112C13.2616 3.26074 13.4864 5.13583 13.4864 6.44306C13.4864 8.82684 12.5755 10.1636 11.8657 10.903C10.3632 12.435 8.37576 12.577 7.03895 12.577H4.37125V19.2196H0V0.279541H6.67221ZM4.37125 8.99838H5.93283C6.53025 8.99838 7.57722 8.9688 8.28703 8.28856C8.68334 7.89225 8.99684 7.23568 8.99684 6.41348C8.99684 5.59129 8.71292 4.96429 8.28703 4.56798C7.63637 3.94098 6.69587 3.85817 5.8441 3.85817H4.36533V8.99838H4.37125Z" fill="white"/>
<path id="Vector_7" d="M39.5246 6.55553H43.6119V19.2197H39.5246V17.6877C38.4184 19.3913 36.8273 19.6456 35.7744 19.6456C33.9585 19.6456 32.4265 19.1901 31.0305 17.7173C29.6937 16.2977 29.185 14.6533 29.185 12.9734C29.185 10.844 29.9776 9.02803 31.1429 7.86276C32.249 6.75664 33.781 6.12964 35.5437 6.12964C36.6203 6.12964 38.3534 6.38399 39.5186 7.97515V6.55553H39.5246ZM34.3252 10.56C33.8993 10.9859 33.3906 11.7253 33.3906 12.861C33.3906 13.9967 33.8757 14.7361 34.2424 15.1324C34.8102 15.7298 35.6916 16.1261 36.6557 16.1261C37.4779 16.1261 38.2469 15.7831 38.7852 15.2448C39.3235 14.7361 39.7789 13.9376 39.7789 12.861C39.7789 11.9501 39.4358 11.0983 38.8443 10.5305C38.2173 9.93304 37.3123 9.64912 36.5729 9.64912C35.6916 9.64912 34.8694 10.0159 34.3311 10.56H34.3252Z" fill="white"/>
</g>
</svg>
